<mxfile host="app.diagrams.net" modified="2022-12-07T04:16:34.779Z" agent="5.0 (Macintosh; Intel Mac OS X 10_15_7) AppleWebKit/537.36 (KHTML, like Gecko) Chrome/107.0.0.0 Safari/537.36" version="20.6.0" etag="sRpjDDbjd8vVIX9Lqytb" type="github">
  <diagram id="Jc-8CKF_EtNRt-ugO34t" name="Page-1">
    <mxGraphModel dx="452" dy="1242" grid="1" gridSize="10" guides="1" tooltips="1" connect="1" arrows="1" fold="1" page="1" pageScale="1" pageWidth="827" pageHeight="1169" math="0" shadow="0">
      <root>
        <mxCell id="0" />
        <mxCell id="1" parent="0" />
        <mxCell id="MSzu6eGsG3Dn9lZhk8FK-3" style="edgeStyle=orthogonalEdgeStyle;rounded=0;orthogonalLoop=1;jettySize=auto;html=1;exitX=1;exitY=1;exitDx=0;exitDy=0;" edge="1" parent="1" source="MSzu6eGsG3Dn9lZhk8FK-1" target="MSzu6eGsG3Dn9lZhk8FK-2">
          <mxGeometry relative="1" as="geometry" />
        </mxCell>
        <mxCell id="MSzu6eGsG3Dn9lZhk8FK-1" value="waitForA" style="ellipse;whiteSpace=wrap;html=1;aspect=fixed;" vertex="1" parent="1">
          <mxGeometry x="290" y="110" width="160" height="160" as="geometry" />
        </mxCell>
        <mxCell id="MSzu6eGsG3Dn9lZhk8FK-16" style="edgeStyle=orthogonalEdgeStyle;rounded=0;orthogonalLoop=1;jettySize=auto;html=1;exitX=0;exitY=0;exitDx=0;exitDy=0;entryX=1;entryY=0;entryDx=0;entryDy=0;" edge="1" parent="1" source="MSzu6eGsG3Dn9lZhk8FK-2" target="MSzu6eGsG3Dn9lZhk8FK-1">
          <mxGeometry relative="1" as="geometry" />
        </mxCell>
        <mxCell id="MSzu6eGsG3Dn9lZhk8FK-2" value="waitForB" style="ellipse;whiteSpace=wrap;html=1;aspect=fixed;" vertex="1" parent="1">
          <mxGeometry x="650" y="190" width="160" height="160" as="geometry" />
        </mxCell>
        <mxCell id="MSzu6eGsG3Dn9lZhk8FK-6" value="" style="curved=1;endArrow=classic;html=1;rounded=0;exitX=0.5;exitY=1;exitDx=0;exitDy=0;entryX=0.288;entryY=0.959;entryDx=0;entryDy=0;entryPerimeter=0;" edge="1" parent="1" source="MSzu6eGsG3Dn9lZhk8FK-1" target="MSzu6eGsG3Dn9lZhk8FK-1">
          <mxGeometry width="50" height="50" relative="1" as="geometry">
            <mxPoint x="520" y="420" as="sourcePoint" />
            <mxPoint x="300" y="300" as="targetPoint" />
            <Array as="points">
              <mxPoint x="420" y="440" />
              <mxPoint x="290" y="370" />
            </Array>
          </mxGeometry>
        </mxCell>
        <mxCell id="MSzu6eGsG3Dn9lZhk8FK-8" value="If a non 0 number is pressed&amp;nbsp;" style="rounded=0;whiteSpace=wrap;html=1;fillColor=#d5e8d4;strokeColor=#82b366;" vertex="1" parent="1">
          <mxGeometry x="310" y="420" width="120" height="60" as="geometry" />
        </mxCell>
        <mxCell id="MSzu6eGsG3Dn9lZhk8FK-9" value="input += num" style="rounded=0;whiteSpace=wrap;html=1;fillColor=#fff2cc;strokeColor=#d6b656;" vertex="1" parent="1">
          <mxGeometry x="310" y="490" width="120" height="60" as="geometry" />
        </mxCell>
        <mxCell id="MSzu6eGsG3Dn9lZhk8FK-10" value="If a 0 is entered and input is empty" style="rounded=0;whiteSpace=wrap;html=1;fillColor=#d5e8d4;strokeColor=#82b366;" vertex="1" parent="1">
          <mxGeometry x="150" y="330" width="120" height="60" as="geometry" />
        </mxCell>
        <mxCell id="MSzu6eGsG3Dn9lZhk8FK-11" value="" style="curved=1;endArrow=classic;html=1;rounded=0;exitX=0.181;exitY=0.909;exitDx=0;exitDy=0;exitPerimeter=0;entryX=0;entryY=0.625;entryDx=0;entryDy=0;entryPerimeter=0;" edge="1" parent="1" source="MSzu6eGsG3Dn9lZhk8FK-1" target="MSzu6eGsG3Dn9lZhk8FK-1">
          <mxGeometry width="50" height="50" relative="1" as="geometry">
            <mxPoint x="520" y="410" as="sourcePoint" />
            <mxPoint x="570" y="360" as="targetPoint" />
            <Array as="points">
              <mxPoint x="140" y="360" />
              <mxPoint x="170" y="220" />
            </Array>
          </mxGeometry>
        </mxCell>
        <mxCell id="MSzu6eGsG3Dn9lZhk8FK-12" value="input doesn&#39;t change" style="rounded=0;whiteSpace=wrap;html=1;fillColor=#fff2cc;strokeColor=#d6b656;" vertex="1" parent="1">
          <mxGeometry x="150" y="420" width="120" height="60" as="geometry" />
        </mxCell>
        <mxCell id="MSzu6eGsG3Dn9lZhk8FK-13" value="" style="curved=1;endArrow=classic;html=1;rounded=0;entryX=0.306;entryY=0.025;entryDx=0;entryDy=0;entryPerimeter=0;exitX=0.006;exitY=0.431;exitDx=0;exitDy=0;exitPerimeter=0;" edge="1" parent="1" source="MSzu6eGsG3Dn9lZhk8FK-1" target="MSzu6eGsG3Dn9lZhk8FK-1">
          <mxGeometry width="50" height="50" relative="1" as="geometry">
            <mxPoint x="390" y="420" as="sourcePoint" />
            <mxPoint x="440" y="370" as="targetPoint" />
            <Array as="points">
              <mxPoint x="160" y="210" />
              <mxPoint x="40" y="210" />
              <mxPoint x="70" y="120" />
              <mxPoint x="200" y="130" />
            </Array>
          </mxGeometry>
        </mxCell>
        <mxCell id="MSzu6eGsG3Dn9lZhk8FK-14" value="If a 0 is entered but input is not empty&lt;br&gt;" style="rounded=0;whiteSpace=wrap;html=1;fillColor=#d5e8d4;strokeColor=#82b366;" vertex="1" parent="1">
          <mxGeometry x="80" y="50" width="120" height="50" as="geometry" />
        </mxCell>
        <mxCell id="MSzu6eGsG3Dn9lZhk8FK-15" value="Add 0 to input" style="rounded=0;whiteSpace=wrap;html=1;fillColor=#fff2cc;strokeColor=#d6b656;" vertex="1" parent="1">
          <mxGeometry x="230" y="30" width="120" height="60" as="geometry" />
        </mxCell>
        <mxCell id="MSzu6eGsG3Dn9lZhk8FK-17" value="When operator is pressed" style="rounded=0;whiteSpace=wrap;html=1;" vertex="1" parent="1">
          <mxGeometry x="470" y="290" width="120" height="60" as="geometry" />
        </mxCell>
        <mxCell id="MSzu6eGsG3Dn9lZhk8FK-18" value="When equal button is [pressed and a nimber is pressed" style="rounded=0;whiteSpace=wrap;html=1;" vertex="1" parent="1">
          <mxGeometry x="580" y="140" width="120" height="60" as="geometry" />
        </mxCell>
        <mxCell id="MSzu6eGsG3Dn9lZhk8FK-19" value="" style="curved=1;endArrow=classic;html=1;rounded=0;entryX=0;entryY=1;entryDx=0;entryDy=0;exitX=0.5;exitY=1;exitDx=0;exitDy=0;" edge="1" parent="1" source="MSzu6eGsG3Dn9lZhk8FK-2" target="MSzu6eGsG3Dn9lZhk8FK-2">
          <mxGeometry width="50" height="50" relative="1" as="geometry">
            <mxPoint x="540" y="230" as="sourcePoint" />
            <mxPoint x="590" y="180" as="targetPoint" />
            <Array as="points">
              <mxPoint x="570" y="510" />
              <mxPoint x="450" y="400" />
            </Array>
          </mxGeometry>
        </mxCell>
        <mxCell id="MSzu6eGsG3Dn9lZhk8FK-20" value="When op is pressed for the second itme&lt;br&gt;" style="rounded=0;whiteSpace=wrap;html=1;" vertex="1" parent="1">
          <mxGeometry x="460" y="480" width="120" height="60" as="geometry" />
        </mxCell>
        <mxCell id="MSzu6eGsG3Dn9lZhk8FK-22" value="" style="curved=1;endArrow=classic;html=1;rounded=0;entryX=0.306;entryY=0.956;entryDx=0;entryDy=0;entryPerimeter=0;exitX=0.681;exitY=0.994;exitDx=0;exitDy=0;exitPerimeter=0;" edge="1" parent="1" source="MSzu6eGsG3Dn9lZhk8FK-2" target="MSzu6eGsG3Dn9lZhk8FK-2">
          <mxGeometry width="50" height="50" relative="1" as="geometry">
            <mxPoint x="560" y="570" as="sourcePoint" />
            <mxPoint x="610" y="520" as="targetPoint" />
            <Array as="points">
              <mxPoint x="770" y="470" />
              <mxPoint x="660" y="520" />
            </Array>
          </mxGeometry>
        </mxCell>
        <mxCell id="MSzu6eGsG3Dn9lZhk8FK-23" value="When a = result&lt;br&gt;" style="rounded=0;whiteSpace=wrap;html=1;" vertex="1" parent="1">
          <mxGeometry x="660" y="500" width="120" height="60" as="geometry" />
        </mxCell>
        <mxCell id="MSzu6eGsG3Dn9lZhk8FK-24" value="" style="curved=1;endArrow=classic;html=1;rounded=0;exitX=0.819;exitY=0.075;exitDx=0;exitDy=0;exitPerimeter=0;entryX=0.381;entryY=-0.012;entryDx=0;entryDy=0;entryPerimeter=0;" edge="1" parent="1" source="MSzu6eGsG3Dn9lZhk8FK-1" target="MSzu6eGsG3Dn9lZhk8FK-1">
          <mxGeometry width="50" height="50" relative="1" as="geometry">
            <mxPoint x="350" y="560" as="sourcePoint" />
            <mxPoint x="400" y="510" as="targetPoint" />
            <Array as="points">
              <mxPoint x="390" y="40" />
              <mxPoint x="360" y="10" />
            </Array>
          </mxGeometry>
        </mxCell>
        <mxCell id="MSzu6eGsG3Dn9lZhk8FK-25" value="When input is empty&lt;br&gt;" style="rounded=0;whiteSpace=wrap;html=1;" vertex="1" parent="1">
          <mxGeometry x="414" y="40" width="120" height="60" as="geometry" />
        </mxCell>
      </root>
    </mxGraphModel>
  </diagram>
</mxfile>
